<svg width="1440" height="583" viewBox="0 0 1440 583" fill="none" xmlns="http://www.w3.org/2000/svg">
<path fill-rule="evenodd" clip-rule="evenodd" d="M275.475 508.995C231.229 511.524 189.408 528.453 149.172 547.03C-8.6281 619.886 -205.03 575.948 -289.503 448.891C-373.977 321.834 -314.534 159.773 -156.734 86.9173C-59.8437 42.1831 51.5999 41.4813 142.751 77.0162C231.145 111.476 320.894 159.268 415.609 153.78L1081.47 115.195C1155.81 110.888 1223.9 74.4827 1290.73 41.6451C1324.34 25.1287 1361.82 12.9258 1402.02 6.28541C1576.84 -22.5966 1736.85 64.6905 1759.41 201.247C1781.97 337.803 1658.54 471.917 1483.71 500.799C1425.58 510.402 1369.09 507.162 1318.74 493.536C1257.42 476.941 1195.39 456.412 1131.96 460.037L275.475 508.995Z" fill="#F7F8F3"/>
</svg>
