<svg width="1440" height="855" viewBox="0 0 1440 855" fill="none" xmlns="http://www.w3.org/2000/svg">
<path fill-rule="evenodd" clip-rule="evenodd" d="M277.6 539.394C229.748 531.655 180.958 537.903 132.787 543.307C84.0894 548.77 31.8135 544.885 -20.5821 530.187C-198.431 480.298 -310.31 324.726 -270.471 182.706C-230.633 40.6862 -54.1624 -34.0005 123.686 15.8885C167.943 28.3032 208.115 47.2622 242.88 70.9283C300.722 110.304 359.496 152.207 427.908 166.897L1256.37 344.792C1293.05 352.666 1331.03 351.503 1368.46 353.863C1481.07 360.96 1578.54 443.796 1599.35 559.661C1623.82 695.888 1533.06 826.186 1396.63 850.691C1335.29 861.71 1275.15 849.461 1225.32 820.256C1125.36 761.671 1038.45 662.46 924.076 643.959L277.6 539.394Z" fill="#F7F8F3"/>
</svg>
